<svg xmlns="http://www.w3.org/2000/svg" viewBox="0 0 64 64" width="64" height="64" role="img" aria-label="Move Me To EU">
  <title>Move Me To EU</title>
  <rect width="64" height="64" rx="10" fill="#003399"/>
  <g fill="#FFCC00">
    <polygon points="32.00,14.00 33.06,17.27 36.50,17.27 33.72,19.29 34.78,22.56 32.00,20.54 29.22,22.56 30.28,19.29 27.50,17.27 30.94,17.27"/>
    <polygon points="41.00,16.41 42.06,19.68 45.50,19.68 42.72,21.70 43.78,24.97 41.00,22.95 38.22,24.97 39.28,21.70 36.50,19.68 39.94,19.68"/>
    <polygon points="47.59,23.00 48.65,26.27 52.09,26.27 49.31,28.29 50.37,31.56 47.59,29.54 44.81,31.56 45.87,28.29 43.09,26.27 46.53,26.27"/>
    <polygon points="50.00,32.00 51.06,35.27 54.50,35.27 51.72,37.29 52.78,40.56 50.00,38.54 47.22,40.56 48.28,37.29 45.50,35.27 48.94,35.27"/>
    <polygon points="47.59,41.00 48.65,44.27 52.09,44.27 49.31,46.29 50.37,49.56 47.59,47.54 44.81,49.56 45.87,46.29 43.09,44.27 46.53,44.27"/>
    <polygon points="41.00,47.59 42.06,50.86 45.50,50.86 42.72,52.88 43.78,56.15 41.00,54.13 38.22,56.15 39.28,52.88 36.50,50.86 39.94,50.86"/>
    <polygon points="32.00,50.00 33.06,53.27 36.50,53.27 33.72,55.29 34.78,58.56 32.00,56.54 29.22,58.56 30.28,55.29 27.50,53.27 30.94,53.27"/>
    <polygon points="23.00,47.59 24.06,50.86 27.50,50.86 24.72,52.88 25.78,56.15 23.00,54.13 20.22,56.15 21.28,52.88 18.50,50.86 21.94,50.86"/>
    <polygon points="16.41,41.00 17.47,44.27 20.91,44.27 18.13,46.29 19.19,49.56 16.41,47.54 13.63,49.56 14.69,46.29 11.91,44.27 15.35,44.27"/>
    <polygon points="14.00,32.00 15.06,35.27 18.50,35.27 15.72,37.29 16.78,40.56 14.00,38.54 11.22,40.56 12.28,37.29 9.50,35.27 12.94,35.27"/>
    <polygon points="16.41,23.00 17.47,26.27 20.91,26.27 18.13,28.29 19.19,31.56 16.41,29.54 13.63,31.56 14.69,28.29 11.91,26.27 15.35,26.27"/>
    <polygon points="23.00,16.41 24.06,19.68 27.50,19.68 24.72,21.70 25.78,24.97 23.00,22.95 20.22,24.97 21.28,21.70 18.50,19.68 21.94,19.68"/>
  </g>
</svg>
